<svg xmlns="http://www.w3.org/2000/svg"
     width="800" height="800" viewBox="0 0 500 500"
     preserveAspectRatio="xMidYMid meet">
  <g transform="translate(0,500) scale(0.1,-0.1)"
     fill="#000000" stroke="none">
    <path d="M1941 3450 l-543 -320 -239 0 -239 0 0 -175 c0 -96 3 -175 7 -175 3 0 102 56 219 125 116 69 215 125 218 125 3 0 6 -376 6 -835 l0 -835 35 0 35 0 0 859 0 858 525 307 c289 169 531 306 539 304 7 -2 225 -127 483 -278 l470 -275 -801 -5 -801 -5 -3 -882 -2 -883 210 0 210 0 0 370 0 370 228 -2 227 -3 3 -367 2 -368 450 0 450 0 0 715 0 715 -35 0 -35 0 0 -685 0 -685 -382 2 -383 3 -3 368 -2 367 -295 0 -295 0 0 -370 0 -370 -140 0 -140 0 0 820 0 820 834 0 834 0 214 -126 c117 -69 228 -135 246 -146 l32 -20 0 181 0 181 -241 0 -241 0 -545 320 c-299 176 -550 320 -556 320 -7 0 -257 -144 -556 -320z m-756 -443 c-49 -29 -116 -68 -147 -86 l-58 -32 0 85 0 86 148 0 147 0 -90 -53z m2825 -32 l0 -84 -122 71 c-186 108 -184 98 -20 98 l142 0 0 -85z"/>
  </g>
</svg>
